<svg width="21" height="20" viewBox="0 0 21 20" fill="none" xmlns="http://www.w3.org/2000/svg">
<path d="M4.19735 18.9343L13.2559 10.4086L17.5188 14.6714M4.19735 18.9343H14.8545C16.6202 18.9343 18.0516 17.5029 18.0516 15.7371V10.4086M4.19735 18.9343C2.43162 18.9343 1.00021 17.5029 1.00021 15.7371V5.08001C1.00021 3.31428 2.43162 1.88287 4.19735 1.88287H11.1245M16.9859 7.02859L16.9859 4.01429M16.9859 4.01429L16.9859 1M16.9859 4.01429L13.9716 4.01429M16.9859 4.01429L20.0002 4.01429M7.3945 6.67858C7.3945 7.56144 6.67879 8.27715 5.79593 8.27715C4.91306 8.27715 4.19735 7.56144 4.19735 6.67858C4.19735 5.79571 4.91306 5.08001 5.79593 5.08001C6.67879 5.08001 7.3945 5.79571 7.3945 6.67858Z" stroke="#9EA3A7" stroke-width="2" stroke-linecap="round" stroke-linejoin="round"/>
</svg>
