<svg width="24" height="24" viewBox="0 0 24 24" fill="none" xmlns="http://www.w3.org/2000/svg">
<g clip-path="url(#clip0_4227_17171)">
<path d="M17.94 17.94C16.2306 19.243 14.1491 19.9649 12 20C7.12568 20 3.706 16.121 2.07858 13.7651C1.33987 12.6957 1.34138 11.3016 2.08043 10.2325C3.17766 8.64519 4.51961 7.23626 6.06 6.05999M9.9 4.23999C10.5883 4.07887 11.2931 3.99833 12 3.99999C16.8767 3.99999 20.2973 7.88274 21.9238 10.2383C22.661 11.3059 22.6605 12.6972 21.925 13.766C21.5867 14.2576 21.2247 14.7328 20.84 15.19M14.12 14.12C13.8454 14.4147 13.5141 14.6511 13.1462 14.8151C12.7782 14.9791 12.3809 15.0673 11.9781 15.0744C11.5753 15.0815 11.1752 15.0074 10.8016 14.8565C10.4281 14.7056 10.0887 14.481 9.80385 14.1961C9.51897 13.9113 9.29439 13.5719 9.14351 13.1984C8.99262 12.8248 8.91853 12.4247 8.92563 12.0219C8.93274 11.6191 9.02091 11.2218 9.18488 10.8538C9.34884 10.4858 9.58525 10.1546 9.88 9.87999" stroke="#9EA3A7" stroke-width="2" stroke-linecap="round" stroke-linejoin="round"/>
<path d="M1 1L23 23" stroke="#9EA3A7" stroke-width="2" stroke-linecap="round" stroke-linejoin="round"/>
</g>
<defs>
<clipPath id="clip0_4227_17171">
<rect width="24" height="24" fill="white"/>
</clipPath>
</defs>
</svg>
