<svg width="37" height="17" viewBox="0 0 37 17" fill="none" xmlns="http://www.w3.org/2000/svg">
<path d="M5.32593 4.08834C5.32593 1.83041 7.15634 0 9.41427 0C11.6722 0 13.5026 1.83041 13.5026 4.08834V7.314C13.5026 9.57193 11.6722 11.4023 9.41427 11.4023C7.15634 11.4023 5.32593 9.57193 5.32593 7.314V4.08834Z" fill="#4351EC"/>
<path d="M1.22418 2.06292C1.22418 0.923602 2.14778 0 3.28711 0C4.42643 0 5.35003 0.923603 5.35003 2.06292V11.8149C5.35003 12.9543 4.42643 13.8779 3.28711 13.8779C2.14778 13.8779 1.22418 12.9543 1.22418 11.8149V2.06292Z" fill="#4351EC"/>
<path d="M1.22418 8.23294C1.22418 5.96466 3.08175 4.12585 5.35003 4.12585C7.61832 4.12585 9.47588 5.96466 9.47588 8.23294V12.3213C9.47588 14.5896 7.61832 16.4284 5.35003 16.4284C3.08175 16.4284 1.22418 14.5896 1.22418 12.3213V8.23294Z" fill="#4351EC"/>
<path d="M13.5267 2.06292C13.5267 0.923602 14.4503 0 15.5896 0C16.729 0 17.6526 0.923603 17.6526 2.06292V11.8149C17.6526 12.9543 16.729 13.8779 15.5896 13.8779C14.4503 13.8779 13.5267 12.9543 13.5267 11.8149V2.06292Z" fill="#4351EC"/>
<path d="M9.47588 8.21419C9.47588 5.95626 11.3063 4.12585 13.5642 4.12585C15.8221 4.12585 17.6526 5.95626 17.6526 8.21419V12.34C17.6526 14.598 15.8221 16.4284 13.5642 16.4284C11.3063 16.4284 9.47588 14.598 9.47588 12.34V8.21419Z" fill="#4351EC"/>
<path d="M18.4019 5.98248C18.4019 3.71419 20.2595 1.87539 22.5278 1.87539C24.7961 1.87539 26.6536 3.71419 26.6536 5.98248V12.3213C26.6536 14.5896 24.7961 16.4284 22.5278 16.4284C20.2595 16.4284 18.4019 14.5896 18.4019 12.3213V5.98248Z" fill="#4351EC"/>
<path d="M26.6536 5.96373C26.6536 3.7058 28.484 1.87539 30.742 1.87539C32.9999 1.87539 34.8303 3.7058 34.8303 5.96373V12.34C34.8303 14.598 32.9999 16.4284 30.742 16.4284C28.484 16.4284 26.6536 14.598 26.6536 12.34V5.96373Z" fill="#4351EC"/>
<path d="M18.4019 6.07625C18.4019 2.72043 21.1223 0 24.4782 0H28.754C32.1099 0 34.8303 2.72043 34.8303 6.07625C34.8303 9.43207 32.1099 12.1525 28.754 12.1525H24.4782C21.1223 12.1525 18.4019 9.43207 18.4019 6.07625Z" fill="#4351EC"/>
<rect x="2.94904" y="3.00049" width="3.75077" height="5.77619" rx="1.87539" fill="white"/>
<rect x="6.69983" y="3.00049" width="3.75077" height="5.77619" rx="1.87539" fill="white"/>
<rect x="20.8775" y="3.00049" width="3.75077" height="5.77619" rx="1.87539" fill="white"/>
<rect x="24.6285" y="3.00073" width="3.75077" height="5.77619" rx="1.87539" fill="white"/>
<rect x="2.94904" y="4.72534" width="2.10043" height="3.30068" rx="1.05022" fill="#27282C"/>
<rect x="6.69983" y="4.72534" width="2.10043" height="3.30068" rx="1.05022" fill="#27282C"/>
<rect x="22.0775" y="3.82568" width="2.10043" height="3.30068" rx="1.05022" fill="#27282C"/>
<rect x="25.8282" y="3.82593" width="2.10043" height="3.30068" rx="1.05022" fill="#27282C"/>
</svg>
