<svg width="36" height="34" viewBox="0 0 36 34" fill="none" xmlns="http://www.w3.org/2000/svg">
<path d="M33.4236 17.2926C34.98 18.0819 35.7588 18.4763 35.7555 19.0942C35.752 19.7122 34.9686 20.0979 33.4029 20.8695L11.7111 31.5597C9.52267 32.6382 8.42873 33.1773 7.92217 32.6708C7.4157 32.1642 7.95479 31.0702 9.03324 28.8818L13.4713 19.8766L24.1877 19.9794C24.7397 19.9846 25.1918 19.5413 25.1973 18.9892C25.2025 18.4371 24.7591 17.9852 24.207 17.9797L13.4513 17.8761L8.90411 8.9095C7.76347 6.66026 7.19332 5.53519 7.70604 5.02248C8.21889 4.5103 9.34357 5.08083 11.5924 6.22125L33.4236 17.2926Z" fill="white"/>
</svg>
