<svg width="24" height="24" viewBox="0 0 24 24" fill="none" xmlns="http://www.w3.org/2000/svg">
<path d="M2.03701 13.7047C1.32519 12.6662 1.32519 11.3338 2.03701 10.2953C3.64733 7.94597 7.08379 4 12 4C16.9162 4 20.3527 7.94597 21.963 10.2953C22.6748 11.3338 22.6748 12.6662 21.963 13.7047C20.3527 16.054 16.9162 20 12 20C7.08379 20 3.64733 16.054 2.03701 13.7047Z" stroke="#9EA3A7" stroke-width="2" stroke-linecap="round" stroke-linejoin="round"/>
<path d="M12 15C13.6569 15 15 13.6569 15 12C15 10.3431 13.6569 9 12 9C10.3431 9 9 10.3431 9 12C9 13.6569 10.3431 15 12 15Z" stroke="#9EA3A7" stroke-width="2" stroke-linecap="round" stroke-linejoin="round"/>
</svg>
