<svg width="187" height="83" viewBox="0 0 187 83" fill="none" xmlns="http://www.w3.org/2000/svg">
<path d="M104.991 29.8673C104.991 18.5429 114.265 9.36278 125.589 9.36278C136.913 9.36278 146.187 18.5429 146.187 29.8673V61.5134C146.187 72.8377 136.913 82.0179 125.589 82.0179C114.265 82.0179 104.991 72.8377 104.991 61.5134V29.8673Z" fill="#4351EC"/>
<path d="M146.187 29.7736C146.187 18.501 155.325 9.36278 166.598 9.36278C177.87 9.36278 187.009 18.501 187.009 29.7736V61.6071C187.009 72.8797 177.87 82.0179 166.598 82.0179C155.325 82.0179 146.187 72.8797 146.187 61.6071V29.7736Z" fill="#4351EC"/>
<path d="M104.991 30.3354C104.991 13.5816 118.572 0 135.326 0H156.673C173.427 0 187.009 13.5816 187.009 30.3354C187.009 47.0892 173.427 60.6708 156.673 60.6708H135.326C118.572 60.6708 104.991 47.0892 104.991 30.3354Z" fill="#4351EC"/>
<rect x="117.35" y="14.9805" width="18.7255" height="28.8373" rx="9.36277" fill="white"/>
<rect x="136.075" y="14.9805" width="18.7255" height="28.8373" rx="9.36277" fill="white"/>
<path d="M61.532 20.4109C61.532 9.13825 52.3937 0 41.1211 0C29.8485 0 20.7103 9.13825 20.7103 20.4109V36.5148C20.7103 47.7874 29.8485 56.9257 41.1211 56.9257C52.3937 56.9257 61.532 47.7874 61.532 36.5148V20.4109Z" fill="#4351EC"/>
<path d="M82.0098 10.2991C82.0098 4.61104 77.3987 0 71.7107 0C66.0227 0 61.4117 4.61104 61.4117 10.2991V58.9855C61.4117 64.6735 66.0227 69.2845 71.7107 69.2845C77.3987 69.2845 82.0098 64.6735 82.0098 58.9855V10.2991Z" fill="#4351EC"/>
<path d="M82.0098 41.1026C82.0098 29.7783 72.736 20.5981 61.4117 20.5981C50.0873 20.5981 40.8136 29.7783 40.8136 41.1026V61.5134C40.8136 72.8377 50.0873 82.0179 61.4117 82.0179C72.736 82.0179 82.0098 72.8377 82.0098 61.5134V41.1026Z" fill="#4351EC"/>
<path d="M20.59 10.2991C20.59 4.61104 15.9789 0 10.2909 0C4.60289 0 -0.00814819 4.61104 -0.00814819 10.2991V58.9855C-0.00814819 64.6735 4.60289 69.2845 10.2909 69.2845C15.9789 69.2845 20.59 64.6735 20.59 58.9855V10.2991Z" fill="#4351EC"/>
<path d="M40.8136 41.009C40.8136 29.7364 31.6753 20.5981 20.4027 20.5981C9.1301 20.5981 -0.00814819 29.7364 -0.00814819 41.009V61.6071C-0.00814819 72.8797 9.1301 82.0179 20.4027 82.0179C31.6753 82.0179 40.8136 72.8797 40.8136 61.6071V41.009Z" fill="#4351EC"/>
<rect width="18.7255" height="28.8373" rx="9.36277" transform="matrix(-1 0 0 1 73.3965 14.9805)" fill="white"/>
<rect width="18.7255" height="28.8373" rx="9.36277" transform="matrix(-1 0 0 1 54.6709 14.9805)" fill="white"/>
<rect width="10.4863" height="16.4785" rx="5.24315" transform="matrix(-1 0 0 1 73.2036 19)" fill="black"/>
<rect width="10.4863" height="16.4785" rx="5.24315" transform="matrix(-1 0 0 1 54.478 19)" fill="black"/>
<rect x="50.999" y="22" width="2" height="4" rx="1" fill="white"/>
<rect x="70" y="22" width="2" height="4" rx="1" fill="white"/>
<rect x="120.228" y="20.1001" width="10.4863" height="16.4785" rx="5.24315" fill="black"/>
<rect x="138.954" y="20.1001" width="10.4863" height="16.4785" rx="5.24315" fill="black"/>
<rect x="7.38135" y="15" width="40" height="0.1" fill="#4351EC"/>
<rect x="116.619" y="15" width="40" height="0.1" fill="#4351EC"/>
<rect width="21" height="15" rx="7.5" transform="matrix(-0.992546 0.121869 0.121869 0.992546 74.1187 28.6416)" fill="#4351EC"/>
<rect width="21" height="15" rx="7.5" transform="matrix(-0.992546 -0.121869 -0.121869 0.992546 55.4619 31.2124)" fill="#4351EC"/>
<rect x="117.119" y="30" width="21" height="15" rx="7.5" transform="rotate(7 117.119 30)" fill="#4351EC"/>
<rect x="135.275" y="32.2129" width="21" height="15" rx="7.5" transform="rotate(-7 135.275 32.2129)" fill="#4351EC"/>
<path d="M89.5083 42.1293L55.6819 51.193C53.7445 51.7121 53.6919 54.4419 55.6078 55.0353L72.6545 60.315C73.0149 60.4266 73.3995 60.434 73.7639 60.3364L110.255 50.5588C112.266 50.0197 112.217 47.1485 110.188 46.6785L90.4773 42.1127C90.1578 42.0387 89.8251 42.0444 89.5083 42.1293Z" fill="white" stroke="#CACDD2" stroke-width="2" stroke-linecap="round"/>
<path d="M89.3798 45.0532L73.7104 48.8524C72.7097 49.095 72.6847 50.5093 73.6762 50.7871L81.3204 52.9295C81.4854 52.9757 81.6594 52.9788 81.8259 52.9384L98.69 48.8496C99.7257 48.5985 99.7025 47.1176 98.6595 46.899L89.8206 45.0464C89.675 45.0158 89.5244 45.0182 89.3798 45.0532Z" fill="#CACDD2"/>
</svg>
