<svg width="77" height="14" viewBox="0 0 77 14" fill="none" xmlns="http://www.w3.org/2000/svg">
<path d="M5.52 3.672C5.63733 3.61867 5.81867 3.56 6.064 3.496C6.32 3.42133 6.576 3.384 6.832 3.384C7.28 3.384 7.65333 3.45333 7.952 3.592C8.25067 3.72 8.432 3.912 8.496 4.168C8.61333 4.60533 8.72 5.016 8.816 5.4C8.92267 5.77333 9.024 6.136 9.12 6.488C9.216 6.82933 9.30667 7.17067 9.392 7.512C9.488 7.85333 9.57867 8.21067 9.664 8.584H9.744C9.84 7.93333 9.92533 7.31467 10 6.728C10.0747 6.13067 10.144 5.54933 10.208 4.984C10.272 4.408 10.336 3.84267 10.4 3.288C10.464 2.72267 10.528 2.152 10.592 1.576C10.9867 1.352 11.408 1.24 11.856 1.24C12.2507 1.24 12.592 1.32533 12.88 1.496C13.168 1.66667 13.312 1.95467 13.312 2.36C13.312 2.59467 13.2853 2.93067 13.232 3.368C13.1893 3.79467 13.1253 4.27467 13.04 4.808C12.9653 5.34133 12.8747 5.90133 12.768 6.488C12.6613 7.07467 12.5493 7.63467 12.432 8.168C12.3147 8.70133 12.192 9.18667 12.064 9.624C11.9467 10.0507 11.8347 10.3813 11.728 10.616C11.568 10.7653 11.3067 10.888 10.944 10.984C10.5813 11.08 10.208 11.128 9.824 11.128C9.32267 11.128 8.896 11.064 8.544 10.936C8.20267 10.7973 7.99467 10.6053 7.92 10.36C7.78133 9.93333 7.632 9.42667 7.472 8.84C7.312 8.25333 7.14133 7.608 6.96 6.904C6.81067 7.59733 6.656 8.27467 6.496 8.936C6.336 9.59733 6.192 10.1573 6.064 10.616C5.904 10.7653 5.664 10.888 5.344 10.984C5.024 11.08 4.672 11.128 4.288 11.128C3.808 11.128 3.37067 11.064 2.976 10.936C2.592 10.7973 2.34133 10.6053 2.224 10.36C2.128 10.168 2.02133 9.88533 1.904 9.512C1.79733 9.128 1.68533 8.696 1.568 8.216C1.45067 7.72533 1.328 7.19733 1.2 6.632C1.08267 6.06667 0.970667 5.50133 0.864 4.936C0.768 4.37067 0.677333 3.82133 0.592 3.288C0.506667 2.744 0.442667 2.248 0.4 1.8C0.549333 1.66133 0.757333 1.53333 1.024 1.416C1.29067 1.29867 1.57867 1.24 1.888 1.24C2.29333 1.24 2.624 1.33067 2.88 1.512C3.14667 1.68267 3.312 1.976 3.376 2.392C3.54667 3.48 3.68533 4.38667 3.792 5.112C3.90933 5.83733 4 6.43467 4.064 6.904C4.13867 7.36267 4.192 7.72 4.224 7.976C4.256 8.232 4.288 8.43467 4.32 8.584H4.4C4.496 8.15733 4.58667 7.76267 4.672 7.4C4.75733 7.03733 4.84267 6.67467 4.928 6.312C5.024 5.93867 5.12 5.544 5.216 5.128C5.312 4.70133 5.41333 4.216 5.52 3.672ZM22.5363 7.112C22.5363 7.77333 22.4349 8.36533 22.2323 8.888C22.0296 9.4 21.7416 9.832 21.3683 10.184C21.0056 10.536 20.5683 10.8027 20.0563 10.984C19.5443 11.1653 18.9736 11.256 18.3443 11.256C17.7149 11.256 17.1443 11.16 16.6323 10.968C16.1203 10.776 15.6776 10.504 15.3043 10.152C14.9416 9.78933 14.6589 9.352 14.4563 8.84C14.2536 8.328 14.1523 7.752 14.1523 7.112C14.1523 6.48267 14.2536 5.912 14.4563 5.4C14.6589 4.888 14.9416 4.456 15.3043 4.104C15.6776 3.74133 16.1203 3.464 16.6323 3.272C17.1443 3.08 17.7149 2.984 18.3443 2.984C18.9736 2.984 19.5443 3.08533 20.0563 3.288C20.5683 3.48 21.0056 3.75733 21.3683 4.12C21.7416 4.472 22.0296 4.904 22.2323 5.416C22.4349 5.928 22.5363 6.49333 22.5363 7.112ZM16.9363 7.112C16.9363 7.76267 17.0589 8.264 17.3043 8.616C17.5603 8.95733 17.9123 9.128 18.3602 9.128C18.8083 9.128 19.1496 8.952 19.3843 8.6C19.6296 8.248 19.7523 7.752 19.7523 7.112C19.7523 6.472 19.6296 5.98133 19.3843 5.64C19.1389 5.288 18.7923 5.112 18.3443 5.112C17.8963 5.112 17.5496 5.288 17.3043 5.64C17.0589 5.98133 16.9363 6.472 16.9363 7.112ZM26.5833 10.984C26.4766 11.016 26.3059 11.048 26.0713 11.08C25.8473 11.112 25.6126 11.128 25.3673 11.128C25.1326 11.128 24.9193 11.112 24.7273 11.08C24.5459 11.048 24.3913 10.984 24.2633 10.888C24.1353 10.792 24.0339 10.664 23.9593 10.504C23.8953 10.3333 23.8633 10.1147 23.8633 9.848V5.048C23.8633 4.80267 23.9059 4.59467 23.9913 4.424C24.0873 4.24267 24.2206 4.08267 24.3913 3.944C24.5619 3.80533 24.7699 3.68267 25.0153 3.576C25.2713 3.45867 25.5433 3.35733 25.8313 3.272C26.1193 3.18667 26.4179 3.12267 26.7273 3.08C27.0366 3.02667 27.3459 3 27.6553 3C28.1673 3 28.5726 3.10133 28.8713 3.304C29.1699 3.496 29.3193 3.816 29.3193 4.264C29.3193 4.41333 29.2979 4.56267 29.2553 4.712C29.2126 4.85067 29.1593 4.97867 29.0953 5.096C28.8713 5.096 28.6419 5.10667 28.4073 5.128C28.1726 5.14933 27.9433 5.18133 27.7193 5.224C27.4953 5.26667 27.2819 5.31467 27.0793 5.368C26.8873 5.41067 26.7219 5.464 26.5833 5.528V10.984ZM38.0414 9.592C37.988 10.0933 37.8387 10.4773 37.5934 10.744C37.3587 11.0107 37.012 11.144 36.5534 11.144C36.212 11.144 35.908 11.064 35.6414 10.904C35.3747 10.7333 35.0867 10.4507 34.7774 10.056L33.1934 8.072V10.984C33.076 11.0053 32.9 11.032 32.6654 11.064C32.4414 11.1067 32.212 11.128 31.9774 11.128C31.7427 11.128 31.5294 11.112 31.3374 11.08C31.156 11.048 31.0014 10.984 30.8734 10.888C30.7454 10.792 30.644 10.664 30.5694 10.504C30.5054 10.3333 30.4734 10.1147 30.4734 9.848V0.584C30.5907 0.551999 30.7614 0.52 30.9854 0.488C31.22 0.445333 31.4547 0.424 31.6894 0.424C31.924 0.424 32.132 0.44 32.3134 0.471999C32.5054 0.503999 32.6654 0.568 32.7934 0.664C32.9214 0.76 33.0174 0.893333 33.0814 1.064C33.156 1.224 33.1934 1.43733 33.1934 1.704V5.928L35.9454 3.112C36.5 3.112 36.9427 3.23467 37.2734 3.48C37.6147 3.72533 37.7854 4.03467 37.7854 4.408C37.7854 4.568 37.7587 4.71733 37.7054 4.856C37.652 4.984 37.5667 5.11733 37.4494 5.256C37.3427 5.39467 37.1987 5.544 37.0174 5.704C36.8467 5.85333 36.644 6.02933 36.4094 6.232L35.4814 7.032L38.0414 9.592ZM42.6756 9.272C42.857 9.272 43.0543 9.256 43.2676 9.224C43.4916 9.18133 43.657 9.128 43.7636 9.064V7.784L42.6116 7.88C42.313 7.90133 42.0676 7.96533 41.8756 8.072C41.6836 8.17867 41.5876 8.33867 41.5876 8.552C41.5876 8.76533 41.6676 8.94133 41.8276 9.08C41.9983 9.208 42.281 9.272 42.6756 9.272ZM42.5476 2.984C43.1236 2.984 43.6463 3.04267 44.1156 3.16C44.5956 3.27733 45.001 3.45867 45.3316 3.704C45.673 3.93867 45.9343 4.24267 46.1156 4.616C46.297 4.97867 46.3876 5.41067 46.3876 5.912V9.496C46.3876 9.77333 46.3076 10.0027 46.1476 10.184C45.9983 10.3547 45.817 10.504 45.6036 10.632C44.9103 11.048 43.9343 11.256 42.6756 11.256C42.1103 11.256 41.5983 11.2027 41.1396 11.096C40.6916 10.9893 40.3023 10.8293 39.9716 10.616C39.6516 10.4027 39.401 10.1307 39.2196 9.8C39.049 9.46933 38.9636 9.08533 38.9636 8.648C38.9636 7.912 39.1823 7.34667 39.6196 6.952C40.057 6.55733 40.7343 6.312 41.6516 6.216L43.7476 5.992V5.88C43.7476 5.57067 43.609 5.352 43.3316 5.224C43.065 5.08533 42.6756 5.016 42.1636 5.016C41.7583 5.016 41.3636 5.05867 40.9796 5.144C40.5956 5.22933 40.249 5.336 39.9396 5.464C39.801 5.368 39.6836 5.224 39.5876 5.032C39.4916 4.82933 39.4436 4.62133 39.4436 4.408C39.4436 4.13067 39.5076 3.912 39.6356 3.752C39.7743 3.58133 39.9823 3.43733 40.2596 3.32C40.569 3.20267 40.9316 3.11733 41.3476 3.064C41.7743 3.01067 42.1743 2.984 42.5476 2.984ZM52.3734 10.76C52.224 10.888 52.0214 10.9893 51.7654 11.064C51.5094 11.1493 51.2054 11.192 50.8534 11.192C50.416 11.192 50.0374 11.128 49.7174 11C49.3974 10.8827 49.184 10.712 49.0774 10.488C48.96 10.232 48.8214 9.82667 48.6614 9.272C48.512 8.71733 48.3627 8.10933 48.2134 7.448C48.064 6.78667 47.92 6.11467 47.7814 5.432C47.6534 4.74933 47.552 4.14667 47.4774 3.624C47.6267 3.47467 47.824 3.34667 48.0694 3.24C48.3254 3.12267 48.6027 3.064 48.9014 3.064C49.2747 3.064 49.5787 3.14933 49.8134 3.32C50.0587 3.48 50.208 3.76267 50.2614 4.168C50.368 4.97867 50.4587 5.65067 50.5334 6.184C50.608 6.70667 50.6667 7.13867 50.7094 7.48C50.7627 7.81067 50.8 8.06667 50.8214 8.248C50.8534 8.41867 50.88 8.55733 50.9014 8.664H50.9654C50.9974 8.49333 51.0507 8.248 51.1254 7.928C51.2107 7.59733 51.3067 7.224 51.4134 6.808C51.52 6.392 51.632 5.944 51.7494 5.464C51.8667 4.97333 51.984 4.488 52.1014 4.008C52.3147 3.89067 52.5227 3.8 52.7254 3.736C52.9387 3.672 53.2 3.64 53.5094 3.64C53.8827 3.64 54.2027 3.69867 54.4694 3.816C54.736 3.93333 54.9067 4.11467 54.9814 4.36C55.1094 4.82933 55.232 5.288 55.3494 5.736C55.4667 6.17333 55.5734 6.584 55.6694 6.968C55.7654 7.34133 55.8507 7.67733 55.9254 7.976C56 8.264 56.0534 8.49333 56.0854 8.664H56.1654C56.2827 7.84267 56.3947 6.98933 56.5014 6.104C56.6187 5.21867 56.7254 4.31733 56.8214 3.4C57.0134 3.28267 57.216 3.19733 57.4294 3.144C57.6427 3.09067 57.856 3.064 58.0694 3.064C58.4427 3.064 58.752 3.144 58.9974 3.304C59.2427 3.464 59.3654 3.74133 59.3654 4.136C59.3654 4.30667 59.3387 4.56267 59.2854 4.904C59.232 5.24533 59.1627 5.62933 59.0774 6.056C58.992 6.48267 58.8907 6.93067 58.7734 7.4C58.6667 7.86933 58.5547 8.32267 58.4374 8.76C58.3307 9.19733 58.224 9.592 58.1174 9.944C58.0214 10.296 57.936 10.568 57.8614 10.76C57.712 10.888 57.4827 10.9893 57.1734 11.064C56.864 11.1493 56.5334 11.192 56.1814 11.192C55.2854 11.192 54.7574 10.968 54.5974 10.52C54.5334 10.328 54.4534 10.088 54.3574 9.8C54.2614 9.50133 54.16 9.176 54.0534 8.824C53.9467 8.472 53.8454 8.10933 53.7494 7.736C53.6534 7.352 53.5734 6.984 53.5094 6.632C53.4347 7.00533 53.344 7.39467 53.2374 7.8C53.1307 8.19467 53.0187 8.584 52.9014 8.968C52.7947 9.34133 52.6934 9.688 52.5974 10.008C52.5014 10.3173 52.4267 10.568 52.3734 10.76ZM63.9256 9.272C64.107 9.272 64.3043 9.256 64.5176 9.224C64.7416 9.18133 64.907 9.128 65.0136 9.064V7.784L63.8616 7.88C63.563 7.90133 63.3176 7.96533 63.1256 8.072C62.9336 8.17867 62.8376 8.33867 62.8376 8.552C62.8376 8.76533 62.9176 8.94133 63.0776 9.08C63.2483 9.208 63.531 9.272 63.9256 9.272ZM63.7976 2.984C64.3736 2.984 64.8963 3.04267 65.3656 3.16C65.8456 3.27733 66.251 3.45867 66.5816 3.704C66.923 3.93867 67.1843 4.24267 67.3656 4.616C67.547 4.97867 67.6376 5.41067 67.6376 5.912V9.496C67.6376 9.77333 67.5576 10.0027 67.3976 10.184C67.2483 10.3547 67.067 10.504 66.8536 10.632C66.1603 11.048 65.1843 11.256 63.9256 11.256C63.3603 11.256 62.8483 11.2027 62.3896 11.096C61.9416 10.9893 61.5523 10.8293 61.2216 10.616C60.9016 10.4027 60.651 10.1307 60.4696 9.8C60.299 9.46933 60.2136 9.08533 60.2136 8.648C60.2136 7.912 60.4323 7.34667 60.8696 6.952C61.307 6.55733 61.9843 6.312 62.9016 6.216L64.9976 5.992V5.88C64.9976 5.57067 64.859 5.352 64.5816 5.224C64.315 5.08533 63.9256 5.016 63.4136 5.016C63.0083 5.016 62.6136 5.05867 62.2296 5.144C61.8456 5.22933 61.499 5.336 61.1896 5.464C61.051 5.368 60.9336 5.224 60.8376 5.032C60.7416 4.82933 60.6936 4.62133 60.6936 4.408C60.6936 4.13067 60.7576 3.912 60.8856 3.752C61.0243 3.58133 61.2323 3.43733 61.5096 3.32C61.819 3.20267 62.1816 3.11733 62.5976 3.064C63.0243 3.01067 63.4243 2.984 63.7976 2.984ZM70.3293 9.016C70.2119 8.74933 70.0839 8.45067 69.9453 8.12C69.8173 7.78933 69.6786 7.41067 69.5293 6.984C69.3906 6.55733 69.2413 6.072 69.0813 5.528C68.9319 4.97333 68.7719 4.33867 68.6013 3.624C68.7506 3.47467 68.9479 3.34667 69.1933 3.24C69.4493 3.12267 69.7266 3.064 70.0253 3.064C70.3986 3.064 70.7079 3.144 70.9533 3.304C71.1986 3.45333 71.3799 3.74133 71.4973 4.168L72.7613 8.568H72.8253C72.9533 8.20533 73.0759 7.81067 73.1933 7.384C73.3213 6.95733 73.4439 6.52 73.5613 6.072C73.6786 5.61333 73.7853 5.16 73.8813 4.712C73.9879 4.25333 74.0786 3.80533 74.1533 3.368C74.5373 3.16533 74.9586 3.064 75.4173 3.064C75.7906 3.064 76.0999 3.144 76.3453 3.304C76.5906 3.464 76.7133 3.74133 76.7133 4.136C76.7133 4.424 76.6759 4.76 76.6013 5.144C76.5266 5.51733 76.4253 5.91733 76.2973 6.344C76.1799 6.77067 76.0359 7.21333 75.8653 7.672C75.7053 8.12 75.5346 8.56267 75.3533 9C75.1719 9.43733 74.9853 9.85333 74.7933 10.248C74.6013 10.632 74.4146 10.9787 74.2333 11.288C73.9346 11.8107 73.6573 12.2373 73.4013 12.568C73.1453 12.8987 72.8999 13.1547 72.6653 13.336C72.4306 13.528 72.1959 13.656 71.9613 13.72C71.7266 13.7947 71.4813 13.832 71.2253 13.832C70.7773 13.832 70.4146 13.6987 70.1373 13.432C69.8599 13.1653 69.6946 12.8187 69.6413 12.392C69.9826 12.1253 70.3239 11.8267 70.6653 11.496C71.0066 11.176 71.3159 10.8453 71.5933 10.504C71.4119 10.4507 71.2146 10.328 71.0013 10.136C70.7986 9.93333 70.5746 9.56 70.3293 9.016Z" fill="#FE4401"/>
</svg>
