<svg width="475" height="105" viewBox="0 0 475 105" fill="none" xmlns="http://www.w3.org/2000/svg">
<path d="M18.5107 33.8805C18.5107 23.6907 26.7712 15.4303 36.961 15.4303C47.1508 15.4303 55.4112 23.6907 55.4112 33.8805V48.4376C55.4112 58.6274 47.1508 66.8878 36.961 66.8878C26.7712 66.8878 18.5107 58.6274 18.5107 48.4376V33.8805Z" fill="#FE4401"/>
<path d="M0 24.74C0 19.5984 4.16812 15.4303 9.30975 15.4303C14.4514 15.4303 18.6195 19.5984 18.6195 24.74V68.7498C18.6195 73.8914 14.4514 78.0595 9.30975 78.0595C4.16812 78.0595 0 73.8914 0 68.7498V24.74Z" fill="#FE4401"/>
<path d="M0 52.5846C0 42.3481 8.38298 34.0498 18.6195 34.0498C28.856 34.0498 37.239 42.3481 37.239 52.5846V71.0349C37.239 81.2714 28.856 89.5698 18.6195 89.5698C8.38298 89.5698 0 81.2714 0 71.0349V52.5846Z" fill="#FE4401"/>
<path d="M55.52 24.74C55.52 19.5984 59.6881 15.4303 64.8297 15.4303C69.9714 15.4303 74.1395 19.5984 74.1395 24.74V68.7498C74.1395 73.8914 69.9714 78.0595 64.8297 78.0595C59.6881 78.0595 55.52 73.8914 55.52 68.7498V24.74Z" fill="#FE4401"/>
<path d="M37.239 52.5C37.239 42.3102 45.4995 34.0498 55.6893 34.0498C65.879 34.0498 74.1395 42.3102 74.1395 52.5V71.1195C74.1395 81.3093 65.879 89.5698 55.6893 89.5698C45.4995 89.5698 37.239 81.3093 37.239 71.1195V52.5Z" fill="#FE4401"/>
<path d="M77.5253 42.4286C77.5253 32.192 85.9083 23.8937 96.1448 23.8937C106.381 23.8937 114.764 32.192 114.764 42.4286V71.0349C114.764 81.2714 106.381 89.5698 96.1448 89.5698C85.9083 89.5698 77.5253 81.2714 77.5253 71.0349V42.4286Z" fill="#FE4401"/>
<path d="M114.764 42.3439C114.764 32.1541 123.025 23.8937 133.215 23.8937C143.404 23.8937 151.665 32.1541 151.665 42.3439V71.1195C151.665 81.3093 143.404 89.5698 133.215 89.5698C123.025 89.5698 114.764 81.3093 114.764 71.1195V42.3439Z" fill="#FE4401"/>
<path d="M77.5253 42.8517C77.5253 27.7073 89.8023 15.4303 104.947 15.4303H124.243C139.388 15.4303 151.665 27.7073 151.665 42.8517C151.665 57.9962 139.388 70.2732 124.243 70.2732H104.947C89.8023 70.2732 77.5253 57.9962 77.5253 42.8517Z" fill="#FE4401"/>
<rect x="7.78632" y="28.9719" width="16.9268" height="26.0673" rx="8.46341" fill="white"/>
<rect x="24.7131" y="28.9719" width="16.9268" height="26.0673" rx="8.46341" fill="white"/>
<rect x="88.696" y="28.9719" width="16.9268" height="26.0673" rx="8.46341" fill="white"/>
<rect x="105.623" y="28.9718" width="16.9268" height="26.0673" rx="8.46341" fill="white"/>
<rect x="7.78632" y="36.7582" width="9.47902" height="14.8956" rx="4.73951" fill="#4351EC"/>
<rect x="24.7131" y="36.7582" width="9.47902" height="14.8956" rx="4.73951" fill="#4351EC"/>
<rect x="94.114" y="32.696" width="9.47902" height="14.8956" rx="4.73951" fill="#4351EC"/>
<rect x="111.041" y="32.6959" width="9.47902" height="14.8956" rx="4.73951" fill="#4351EC"/>
<path d="M186.74 68.9957C186.115 69.5313 185.267 69.9554 184.196 70.2678C183.125 70.6249 181.853 70.8034 180.38 70.8034C178.55 70.8034 176.965 70.5356 175.626 70C174.287 69.509 173.394 68.7949 172.948 67.8575C172.457 66.7863 171.877 65.0902 171.207 62.7692C170.582 60.4482 169.957 57.904 169.333 55.1366C168.708 52.3693 168.105 49.5573 167.525 46.7006C166.989 43.844 166.565 41.3222 166.253 39.135C166.878 38.5102 167.703 37.9745 168.73 37.5282C169.801 37.0372 170.962 36.7917 172.212 36.7917C173.774 36.7917 175.046 37.1488 176.028 37.863C177.054 38.5325 177.679 39.7153 177.902 41.4114C178.349 44.8037 178.728 47.6157 179.041 49.8474C179.353 52.0345 179.599 53.8422 179.777 55.2705C180 56.6542 180.157 57.7254 180.246 58.4842C180.38 59.1984 180.491 59.7786 180.581 60.225H180.848C180.982 59.5108 181.205 58.4842 181.518 57.1452C181.875 55.7615 182.277 54.1993 182.723 52.4585C183.169 50.7178 183.638 48.8431 184.129 46.8345C184.62 44.7813 185.111 42.7505 185.602 40.7419C186.495 40.2509 187.365 39.8715 188.213 39.6037C189.106 39.3359 190.199 39.202 191.494 39.202C193.056 39.202 194.395 39.4475 195.511 39.9385C196.627 40.4295 197.341 41.1882 197.653 42.2148C198.189 44.1788 198.702 46.0981 199.193 47.9727C199.684 49.8028 200.131 51.5212 200.532 53.1281C200.934 54.6903 201.291 56.0963 201.604 57.346C201.916 58.5512 202.139 59.5108 202.273 60.225H202.608C203.099 56.7881 203.567 53.2173 204.014 49.5126C204.505 45.8079 204.951 42.0363 205.353 38.1977C206.156 37.7067 207.004 37.3497 207.897 37.1265C208.79 36.9033 209.682 36.7917 210.575 36.7917C212.137 36.7917 213.432 37.1265 214.458 37.796C215.485 38.4655 215.998 39.626 215.998 41.2775C215.998 41.9917 215.887 43.0629 215.663 44.4912C215.44 45.9195 215.15 47.5264 214.793 49.3118C214.436 51.0972 214.012 52.9718 213.521 54.9358C213.075 56.8997 212.606 58.7967 212.115 60.6267C211.669 62.4567 211.222 64.1082 210.776 65.5812C210.374 67.0541 210.017 68.1923 209.705 68.9957C209.08 69.5313 208.12 69.9554 206.826 70.2678C205.531 70.6249 204.148 70.8034 202.675 70.8034C198.925 70.8034 196.716 69.8661 196.047 67.9914C195.779 67.188 195.444 66.1837 195.042 64.9786C194.641 63.7288 194.216 62.3675 193.77 60.8945C193.324 59.4216 192.9 57.904 192.498 56.3418C192.096 54.7349 191.762 53.195 191.494 51.7221C191.181 53.2843 190.802 54.9134 190.356 56.6096C189.909 58.2611 189.441 59.8902 188.95 61.4971C188.503 63.0593 188.079 64.5099 187.677 65.849C187.276 67.1434 186.963 68.1923 186.74 68.9957ZM253.493 53.7306C253.493 56.498 253.068 58.9752 252.22 61.1623C251.372 63.3048 250.167 65.1125 248.605 66.5854C247.087 68.0584 245.257 69.1743 243.115 69.933C240.972 70.6918 238.585 71.0712 235.951 71.0712C233.318 71.0712 230.93 70.6695 228.787 69.8661C226.645 69.0627 224.792 67.9245 223.23 66.4515C221.713 64.934 220.53 63.1039 219.682 60.9615C218.834 58.819 218.41 56.4087 218.41 53.7306C218.41 51.0972 218.834 48.7092 219.682 46.5667C220.53 44.4243 221.713 42.6166 223.23 41.1436C224.792 39.626 226.645 38.4655 228.787 37.6621C230.93 36.8587 233.318 36.457 235.951 36.457C238.585 36.457 240.972 36.881 243.115 37.7291C245.257 38.5325 247.087 39.693 248.605 41.2106C250.167 42.6835 251.372 44.4912 252.22 46.6337C253.068 48.7762 253.493 51.1418 253.493 53.7306ZM230.059 53.7306C230.059 56.4533 230.573 58.5512 231.599 60.0241C232.67 61.4524 234.143 62.1666 236.018 62.1666C237.893 62.1666 239.321 61.4301 240.303 59.9572C241.33 58.4842 241.843 56.4087 241.843 53.7306C241.843 51.0525 241.33 48.9993 240.303 47.571C239.276 46.0981 237.826 45.3616 235.951 45.3616C234.076 45.3616 232.626 46.0981 231.599 47.571C230.573 48.9993 230.059 51.0525 230.059 53.7306ZM269.088 69.933C268.642 70.067 267.928 70.2009 266.946 70.3348C266.008 70.4687 265.026 70.5356 264 70.5356C263.018 70.5356 262.125 70.4687 261.322 70.3348C260.563 70.2009 259.916 69.933 259.38 69.5313C258.845 69.1296 258.42 68.594 258.108 67.9245C257.84 67.2103 257.706 66.2953 257.706 65.1794V45.0938C257.706 44.0672 257.885 43.1968 258.242 42.4827C258.644 41.7239 259.202 41.0543 259.916 40.4741C260.63 39.8938 261.5 39.3805 262.527 38.9342C263.598 38.4432 264.736 38.0192 265.941 37.6621C267.147 37.305 268.396 37.0372 269.691 36.8587C270.985 36.6355 272.28 36.5239 273.574 36.5239C275.716 36.5239 277.413 36.9479 278.662 37.796C279.912 38.5994 280.537 39.9385 280.537 41.8131C280.537 42.438 280.448 43.0629 280.269 43.6878C280.091 44.268 279.867 44.8037 279.6 45.2946C278.662 45.2946 277.703 45.3393 276.721 45.4286C275.739 45.5178 274.779 45.6517 273.842 45.8303C272.904 46.0088 272.012 46.2097 271.164 46.4328C270.36 46.6114 269.668 46.8345 269.088 47.1024V69.933ZM315.696 64.1082C315.473 66.206 314.848 67.8129 313.821 68.9288C312.839 70.0446 311.389 70.6026 309.469 70.6026C308.041 70.6026 306.769 70.2678 305.653 69.5983C304.537 68.8841 303.332 67.7013 302.038 66.0498L295.409 57.7478V69.933C294.918 70.0223 294.182 70.1339 293.2 70.2678C292.263 70.4463 291.303 70.5356 290.321 70.5356C289.339 70.5356 288.446 70.4687 287.643 70.3348C286.884 70.2009 286.237 69.933 285.701 69.5313C285.166 69.1296 284.742 68.594 284.429 67.9245C284.161 67.2103 284.027 66.2953 284.027 65.1794V26.4141C284.518 26.2802 285.233 26.1463 286.17 26.0124C287.152 25.8339 288.134 25.7446 289.116 25.7446C290.098 25.7446 290.968 25.8116 291.727 25.9455C292.53 26.0794 293.2 26.3472 293.735 26.7489C294.271 27.1506 294.673 27.7085 294.941 28.4227C295.253 29.0922 295.409 29.9849 295.409 31.1008V48.7762L306.925 36.9926C309.246 36.9926 311.098 37.5059 312.482 38.5325C313.91 39.5591 314.625 40.8535 314.625 42.4157C314.625 43.0852 314.513 43.7101 314.29 44.2904C314.067 44.826 313.71 45.3839 313.219 45.9642C312.772 46.5444 312.17 47.1693 311.411 47.8388C310.697 48.4637 309.849 49.2002 308.867 50.0483L304.983 53.3959L315.696 64.1082ZM333.749 62.7692C334.508 62.7692 335.333 62.7022 336.226 62.5683C337.163 62.3898 337.855 62.1666 338.302 61.8988V56.5426L333.481 56.9443C332.231 57.0336 331.205 57.3014 330.401 57.7478C329.598 58.1941 329.196 58.8636 329.196 59.7563C329.196 60.649 329.531 61.3855 330.2 61.9657C330.915 62.5014 332.097 62.7692 333.749 62.7692ZM333.213 36.457C335.623 36.457 337.811 36.7025 339.775 37.1934C341.783 37.6844 343.479 38.4432 344.863 39.4698C346.291 40.4518 347.385 41.7239 348.144 43.2861C348.902 44.8037 349.282 46.6114 349.282 48.7092V63.7065C349.282 64.867 348.947 65.8266 348.277 66.5854C347.653 67.2996 346.894 67.9245 346.001 68.4601C343.1 70.2009 339.016 71.0712 333.749 71.0712C331.383 71.0712 329.241 70.8481 327.321 70.4017C325.447 69.9554 323.818 69.2858 322.434 68.3931C321.095 67.5005 320.046 66.3623 319.287 64.9786C318.573 63.5949 318.216 61.9881 318.216 60.158C318.216 57.0782 319.131 54.7126 320.961 53.0611C322.791 51.4096 325.625 50.383 329.464 49.9813L338.235 49.044V48.5753C338.235 47.2809 337.654 46.3659 336.494 45.8303C335.378 45.25 333.749 44.9599 331.606 44.9599C329.91 44.9599 328.259 45.1384 326.652 45.4955C325.045 45.8526 323.594 46.2989 322.3 46.8345C321.72 46.4328 321.229 45.8303 320.827 45.0268C320.425 44.1788 320.224 43.3084 320.224 42.4157C320.224 41.2552 320.492 40.3402 321.028 39.6707C321.608 38.9565 322.479 38.3539 323.639 37.863C324.933 37.372 326.451 37.0149 328.192 36.7917C329.977 36.5685 331.651 36.457 333.213 36.457ZM372.99 68.9957C372.365 69.5313 371.517 69.9554 370.446 70.2678C369.375 70.6249 368.103 70.8034 366.63 70.8034C364.8 70.8034 363.215 70.5356 361.876 70C360.537 69.509 359.644 68.7949 359.198 67.8575C358.707 66.7863 358.127 65.0902 357.457 62.7692C356.832 60.4482 356.207 57.904 355.583 55.1366C354.958 52.3693 354.355 49.5573 353.775 46.7006C353.239 43.844 352.815 41.3222 352.503 39.135C353.128 38.5102 353.953 37.9745 354.98 37.5282C356.051 37.0372 357.212 36.7917 358.461 36.7917C360.024 36.7917 361.296 37.1488 362.278 37.863C363.304 38.5325 363.929 39.7153 364.152 41.4114C364.599 44.8037 364.978 47.6157 365.291 49.8474C365.603 52.0345 365.849 53.8422 366.027 55.2705C366.25 56.6542 366.406 57.7254 366.496 58.4842C366.63 59.1984 366.741 59.7786 366.831 60.225H367.098C367.232 59.5108 367.455 58.4842 367.768 57.1452C368.125 55.7615 368.527 54.1993 368.973 52.4585C369.419 50.7178 369.888 48.8431 370.379 46.8345C370.87 44.7813 371.361 42.7505 371.852 40.7419C372.745 40.2509 373.615 39.8715 374.463 39.6037C375.356 39.3359 376.449 39.202 377.744 39.202C379.306 39.202 380.645 39.4475 381.761 39.9385C382.877 40.4295 383.591 41.1882 383.903 42.2148C384.439 44.1788 384.952 46.0981 385.443 47.9727C385.934 49.8028 386.381 51.5212 386.782 53.1281C387.184 54.6903 387.541 56.0963 387.853 57.346C388.166 58.5512 388.389 59.5108 388.523 60.225H388.858C389.349 56.7881 389.817 53.2173 390.264 49.5126C390.755 45.8079 391.201 42.0363 391.603 38.1977C392.406 37.7067 393.254 37.3497 394.147 37.1265C395.04 36.9033 395.932 36.7917 396.825 36.7917C398.387 36.7917 399.682 37.1265 400.708 37.796C401.735 38.4655 402.248 39.626 402.248 41.2775C402.248 41.9917 402.137 43.0629 401.913 44.4912C401.69 45.9195 401.4 47.5264 401.043 49.3118C400.686 51.0972 400.262 52.9718 399.771 54.9358C399.325 56.8997 398.856 58.7967 398.365 60.6267C397.919 62.4567 397.472 64.1082 397.026 65.5812C396.624 67.0541 396.267 68.1923 395.955 68.9957C395.33 69.5313 394.37 69.9554 393.076 70.2678C391.781 70.6249 390.398 70.8034 388.925 70.8034C385.175 70.8034 382.966 69.8661 382.296 67.9914C382.029 67.188 381.694 66.1837 381.292 64.9786C380.89 63.7288 380.466 62.3675 380.02 60.8945C379.574 59.4216 379.15 57.904 378.748 56.3418C378.346 54.7349 378.012 53.195 377.744 51.7221C377.431 53.2843 377.052 54.9134 376.606 56.6096C376.159 58.2611 375.691 59.8902 375.2 61.4971C374.753 63.0593 374.329 64.5099 373.927 65.849C373.526 67.1434 373.213 68.1923 372.99 68.9957ZM419.992 62.7692C420.75 62.7692 421.576 62.7022 422.469 62.5683C423.406 62.3898 424.098 62.1666 424.544 61.8988V56.5426L419.724 56.9443C418.474 57.0336 417.447 57.3014 416.644 57.7478C415.841 58.1941 415.439 58.8636 415.439 59.7563C415.439 60.649 415.774 61.3855 416.443 61.9657C417.157 62.5014 418.34 62.7692 419.992 62.7692ZM419.456 36.457C421.866 36.457 424.053 36.7025 426.017 37.1934C428.026 37.6844 429.722 38.4432 431.106 39.4698C432.534 40.4518 433.628 41.7239 434.386 43.2861C435.145 44.8037 435.524 46.6114 435.524 48.7092V63.7065C435.524 64.867 435.19 65.8266 434.52 66.5854C433.895 67.2996 433.137 67.9245 432.244 68.4601C429.343 70.2009 425.258 71.0712 419.992 71.0712C417.626 71.0712 415.483 70.8481 413.564 70.4017C411.69 69.9554 410.06 69.2858 408.677 68.3931C407.338 67.5005 406.289 66.3623 405.53 64.9786C404.816 63.5949 404.459 61.9881 404.459 60.158C404.459 57.0782 405.374 54.7126 407.204 53.0611C409.034 51.4096 411.868 50.383 415.707 49.9813L424.477 49.044V48.5753C424.477 47.2809 423.897 46.3659 422.737 45.8303C421.621 45.25 419.992 44.9599 417.849 44.9599C416.153 44.9599 414.502 45.1384 412.895 45.4955C411.288 45.8526 409.837 46.2989 408.543 46.8345C407.963 46.4328 407.472 45.8303 407.07 45.0268C406.668 44.1788 406.467 43.3084 406.467 42.4157C406.467 41.2552 406.735 40.3402 407.271 39.6707C407.851 38.9565 408.721 38.3539 409.882 37.863C411.176 37.372 412.694 37.0149 414.435 36.7917C416.22 36.5685 417.894 36.457 419.456 36.457ZM445.449 61.6979C444.958 60.5821 444.422 59.3323 443.842 57.9486C443.306 56.5649 442.726 54.9804 442.101 53.195C441.521 51.4096 440.896 49.3787 440.226 47.1024C439.601 44.7813 438.932 42.1256 438.218 39.135C438.843 38.5102 439.668 37.9745 440.695 37.5282C441.766 37.0372 442.927 36.7917 444.176 36.7917C445.739 36.7917 447.033 37.1265 448.06 37.796C449.086 38.4209 449.845 39.626 450.336 41.4114L455.625 59.8233H455.893C456.429 58.3057 456.942 56.6542 457.433 54.8688C457.969 53.0834 458.482 51.2534 458.973 49.3787C459.464 47.4594 459.91 45.5625 460.312 43.6878C460.758 41.7685 461.138 39.8938 461.45 38.0638C463.057 37.2158 464.82 36.7917 466.739 36.7917C468.302 36.7917 469.596 37.1265 470.623 37.796C471.649 38.4655 472.162 39.626 472.162 41.2775C472.162 42.4827 472.006 43.8887 471.694 45.4955C471.381 47.0577 470.957 48.7315 470.422 50.5169C469.931 52.3023 469.328 54.1547 468.614 56.0739C467.945 57.9486 467.23 59.801 466.472 61.631C465.713 63.461 464.932 65.2018 464.128 66.8532C463.325 68.4601 462.544 69.9107 461.785 71.2051C460.535 73.3922 459.375 75.1776 458.303 76.5613C457.232 77.945 456.206 79.0162 455.224 79.775C454.242 80.5784 453.26 81.1141 452.278 81.3819C451.296 81.6943 450.269 81.8505 449.198 81.8505C447.323 81.8505 445.806 81.2926 444.645 80.1767C443.485 79.0609 442.793 77.6102 442.57 75.8248C443.998 74.709 445.426 73.4592 446.855 72.0755C448.283 70.7365 449.577 69.3528 450.738 67.9245C449.979 67.7013 449.153 67.188 448.261 66.3846C447.413 65.5365 446.475 63.9743 445.449 61.6979Z" fill="black"/>
</svg>
