<svg width="472" height="87" viewBox="0 0 472 87" fill="none" xmlns="http://www.w3.org/2000/svg">
<path d="M31.6015 66.7142C30.6376 67.5403 29.3295 68.1944 27.6771 68.6763C26.0247 69.2271 24.0626 69.5025 21.7906 69.5025C18.9678 69.5025 16.5237 69.0894 14.4582 68.2632C12.3928 67.5059 11.0158 66.4043 10.3273 64.9585C9.56996 63.3062 8.67493 60.6899 7.64221 57.1098C6.67833 53.5297 5.71445 49.6053 4.75057 45.3367C3.78669 41.0681 2.85724 36.7306 1.96221 32.3243C1.13603 27.918 0.481967 24.0281 2.79222e-05 20.6545C0.963906 19.6907 2.2376 18.8645 3.82112 18.176C5.47348 17.4187 7.26354 17.04 9.1913 17.04C11.601 17.04 13.5632 17.5908 15.0778 18.6924C16.6614 19.7251 17.6252 21.5496 17.9695 24.1658C18.658 29.3983 19.2432 33.7357 19.7251 37.1782C20.2071 40.5517 20.5857 43.3401 20.8611 45.5433C21.2054 47.6776 21.4463 49.3299 21.584 50.5003C21.7906 51.6019 21.9627 52.4969 22.1004 53.1854H22.5135C22.72 52.0839 23.0643 50.5003 23.5462 48.4349C24.097 46.3006 24.7166 43.8909 25.4051 41.2058C26.0936 38.5207 26.8165 35.6291 27.5738 32.5309C28.3312 29.3639 29.0885 26.2313 29.8458 23.1331C31.2228 22.3757 32.5654 21.7905 33.8735 21.3774C35.2504 20.9644 36.9372 20.7578 38.9338 20.7578C41.3435 20.7578 43.409 21.1365 45.1302 21.8938C46.8514 22.6511 47.953 23.8216 48.4349 25.4051C49.2611 28.4344 50.0529 31.3949 50.8102 34.2865C51.5675 37.1093 52.256 39.76 52.8756 42.2385C53.4953 44.6482 54.0461 46.8169 54.528 48.7447C55.0099 50.6036 55.3542 52.0839 55.5607 53.1854H56.0771C56.8344 47.8841 57.5573 42.3762 58.2458 36.6618C59.0032 30.9474 59.6916 25.1297 60.3113 19.2087C61.5506 18.4514 62.8587 17.9006 64.2356 17.5564C65.6126 17.2121 66.9896 17.04 68.3666 17.04C70.7762 17.04 72.7729 17.5564 74.3564 18.5891C75.9399 19.6218 76.7316 21.4119 76.7316 23.9593C76.7316 25.0608 76.5595 26.7132 76.2153 28.9163C75.871 31.1195 75.4235 33.598 74.8727 36.352C74.3219 39.1059 73.6679 41.9976 72.9106 45.0269C72.2221 48.0562 71.4992 50.9823 70.7418 53.8051C70.0533 56.6279 69.3649 59.1752 68.6764 61.4472C68.0567 63.7192 67.5059 65.4749 67.024 66.7142C66.0601 67.5403 64.5799 68.1944 62.5833 68.6763C60.5867 69.2271 58.4524 69.5025 56.1804 69.5025C50.3971 69.5025 46.9891 68.0567 45.9564 65.1651C45.5433 63.9258 45.0269 62.3767 44.4073 60.5178C43.7877 58.59 43.1336 56.4902 42.4451 54.2182C41.7566 51.9462 41.1026 49.6053 40.4829 47.1956C39.8633 44.7171 39.3469 42.3418 38.9338 40.0698C38.4519 42.4795 37.8667 44.9925 37.1782 47.6087C36.4897 50.1561 35.7668 52.6691 35.0095 55.1476C34.321 57.5573 33.6669 59.7949 33.0473 61.8603C32.4277 63.8569 31.9457 65.4749 31.6015 66.7142ZM134.566 43.168C134.566 47.4366 133.912 51.2577 132.604 54.6312C131.296 57.936 129.437 60.7243 127.027 62.9963C124.686 65.2683 121.863 66.9895 118.559 68.16C115.254 69.3304 111.571 69.9156 107.509 69.9156C103.446 69.9156 99.7631 69.296 96.4583 68.0567C93.1536 66.8174 90.2964 65.0618 87.8867 62.7898C85.5459 60.4489 83.7214 57.6262 82.4132 54.3214C81.1051 51.0167 80.4511 47.2989 80.4511 43.168C80.4511 39.1059 81.1051 35.4225 82.4132 32.1178C83.7214 28.8131 85.5459 26.0247 87.8867 23.7527C90.2964 21.4119 93.1536 19.6218 96.4583 18.3825C99.7631 17.1433 103.446 16.5236 107.509 16.5236C111.571 16.5236 115.254 17.1777 118.559 18.4858C121.863 19.7251 124.686 21.5151 127.027 23.856C129.437 26.128 131.296 28.9163 132.604 32.2211C133.912 35.5258 134.566 39.1748 134.566 43.168ZM98.4205 43.168C98.4205 47.3677 99.2123 50.6036 100.796 52.8756C102.448 55.0788 104.72 56.1803 107.612 56.1803C110.503 56.1803 112.707 55.0443 114.221 52.7723C115.805 50.5003 116.597 47.2989 116.597 43.168C116.597 39.0371 115.805 35.87 114.221 33.6669C112.638 31.3949 110.4 30.2589 107.509 30.2589C104.617 30.2589 102.379 31.3949 100.796 33.6669C99.2123 35.87 98.4205 39.0371 98.4205 43.168ZM158.622 68.16C157.934 68.3665 156.832 68.5731 155.317 68.7796C153.871 68.9862 152.357 69.0894 150.773 69.0894C149.259 69.0894 147.882 68.9862 146.642 68.7796C145.472 68.5731 144.474 68.16 143.647 67.5403C142.821 66.9207 142.167 66.0945 141.685 65.0618C141.272 63.9602 141.066 62.5488 141.066 60.8276V29.8458C141.066 28.2623 141.341 26.9197 141.892 25.8182C142.511 24.6477 143.372 23.615 144.474 22.72C145.575 21.825 146.918 21.0332 148.501 20.3447C150.154 19.5874 151.909 18.9333 153.768 18.3825C155.627 17.8317 157.555 17.4187 159.551 17.1433C161.548 16.799 163.545 16.6269 165.541 16.6269C168.846 16.6269 171.462 17.281 173.39 18.5891C175.318 19.8283 176.282 21.8938 176.282 24.7854C176.282 25.7493 176.144 26.7132 175.869 27.6771C175.593 28.5721 175.249 29.3983 174.836 30.1556C173.39 30.1556 171.91 30.2245 170.395 30.3622C168.88 30.4999 167.4 30.7064 165.954 30.9818C164.509 31.2572 163.132 31.567 161.823 31.9113C160.584 32.1866 159.517 32.5309 158.622 32.944V68.16ZM230.514 59.1752C230.169 62.4111 229.205 64.8897 227.622 66.6109C226.107 68.3321 223.87 69.1927 220.909 69.1927C218.706 69.1927 216.744 68.6763 215.023 67.6436C213.301 66.542 211.443 64.7175 209.446 62.1702L199.222 49.3643V68.16C198.465 68.2977 197.329 68.4698 195.814 68.6763C194.368 68.9517 192.888 69.0894 191.373 69.0894C189.859 69.0894 188.482 68.9862 187.242 68.7796C186.072 68.5731 185.074 68.16 184.247 67.5403C183.421 66.9207 182.767 66.0945 182.285 65.0618C181.872 63.9602 181.666 62.5488 181.666 60.8276V1.03272C182.423 0.826174 183.524 0.61963 184.97 0.413087C186.485 0.137692 188 -4.72051e-06 189.514 -4.72051e-06C191.029 -4.72051e-06 192.371 0.103267 193.542 0.309809C194.781 0.516356 195.814 0.929448 196.64 1.54908C197.466 2.16872 198.086 3.02933 198.499 4.1309C198.981 5.16363 199.222 6.5406 199.222 8.26181V35.5258L216.985 17.3498C220.565 17.3498 223.422 18.1416 225.556 19.7251C227.76 21.3086 228.861 23.3052 228.861 25.7149C228.861 26.7476 228.689 27.7115 228.345 28.6065C228.001 29.4327 227.45 30.2933 226.692 31.1883C226.004 32.0834 225.075 33.0473 223.904 34.08C222.803 35.0439 221.494 36.1799 219.98 37.488L213.99 42.6516L230.514 59.1752ZM258.36 57.1098C259.53 57.1098 260.804 57.0065 262.181 56.8C263.627 56.5246 264.694 56.1803 265.383 55.7672V47.5054L257.947 48.1251C256.019 48.2628 254.436 48.6759 253.196 49.3643C251.957 50.0528 251.338 51.0856 251.338 52.4625C251.338 53.8395 251.854 54.9755 252.887 55.8705C253.988 56.6967 255.813 57.1098 258.36 57.1098ZM257.534 16.5236C261.252 16.5236 264.625 16.9023 267.655 17.6596C270.753 18.417 273.369 19.5874 275.503 21.1709C277.706 22.6856 279.393 24.6477 280.564 27.0574C281.734 29.3983 282.319 32.1867 282.319 35.4225V58.5556C282.319 60.3457 281.803 61.8259 280.77 62.9963C279.806 64.0979 278.636 65.0618 277.259 65.888C272.784 68.5731 266.484 69.9156 258.36 69.9156C254.711 69.9156 251.406 69.5714 248.446 68.8829C245.554 68.1944 243.041 67.1617 240.907 65.7847C238.842 64.4077 237.224 62.6521 236.053 60.5178C234.952 58.3835 234.401 55.9049 234.401 53.0822C234.401 48.3316 235.812 44.6826 238.635 42.1353C241.458 39.5879 245.83 38.0043 251.751 37.3847L265.279 35.9389V35.216C265.279 33.2194 264.384 31.808 262.594 30.9818C260.873 30.0868 258.36 29.6393 255.055 29.6393C252.439 29.6393 249.892 29.9147 247.413 30.4654C244.935 31.0162 242.697 31.7047 240.7 32.5309C239.805 31.9113 239.048 30.9818 238.428 29.7425C237.809 28.4344 237.499 27.0919 237.499 25.7149C237.499 23.9248 237.912 22.5134 238.738 21.4807C239.633 20.3791 240.976 19.4497 242.766 18.6924C244.762 17.935 247.103 17.3842 249.788 17.04C252.542 16.6957 255.124 16.5236 257.534 16.5236ZM318.889 66.7142C317.925 67.5403 316.617 68.1944 314.965 68.6763C313.312 69.2271 311.35 69.5025 309.078 69.5025C306.255 69.5025 303.811 69.0894 301.746 68.2632C299.68 67.5059 298.303 66.4043 297.615 64.9585C296.858 63.3062 295.963 60.6899 294.93 57.1098C293.966 53.5297 293.002 49.6053 292.038 45.3367C291.074 41.0681 290.145 36.7306 289.25 32.3243C288.424 27.918 287.77 24.0281 287.288 20.6545C288.252 19.6907 289.525 18.8645 291.109 18.176C292.761 17.4187 294.551 17.04 296.479 17.04C298.889 17.04 300.851 17.5908 302.366 18.6924C303.949 19.7251 304.913 21.5496 305.257 24.1658C305.946 29.3983 306.531 33.7357 307.013 37.1782C307.495 40.5517 307.873 43.3401 308.149 45.5433C308.493 47.6776 308.734 49.3299 308.872 50.5003C309.078 51.6019 309.25 52.4969 309.388 53.1854H309.801C310.008 52.0839 310.352 50.5003 310.834 48.4349C311.385 46.3006 312.004 43.8909 312.693 41.2058C313.381 38.5207 314.104 35.6291 314.862 32.5309C315.619 29.3639 316.376 26.2313 317.134 23.1331C318.51 22.3757 319.853 21.7905 321.161 21.3774C322.538 20.9644 324.225 20.7578 326.222 20.7578C328.631 20.7578 330.697 21.1365 332.418 21.8938C334.139 22.6511 335.241 23.8216 335.723 25.4051C336.549 28.4344 337.341 31.3949 338.098 34.2865C338.855 37.1093 339.544 39.76 340.163 42.2385C340.783 44.6482 341.334 46.8169 341.816 48.7447C342.298 50.6036 342.642 52.0839 342.848 53.1854H343.365C344.122 47.8841 344.845 42.3762 345.534 36.6618C346.291 30.9474 346.979 25.1297 347.599 19.2087C348.838 18.4514 350.146 17.9006 351.523 17.5564C352.9 17.2121 354.277 17.04 355.654 17.04C358.064 17.04 360.061 17.5564 361.644 18.5891C363.228 19.6218 364.019 21.4119 364.019 23.9593C364.019 25.0608 363.847 26.7132 363.503 28.9163C363.159 31.1195 362.711 33.598 362.16 36.352C361.61 39.1059 360.956 41.9976 360.198 45.0269C359.51 48.0562 358.787 50.9823 358.03 53.8051C357.341 56.6279 356.653 59.1752 355.964 61.4472C355.344 63.7192 354.794 65.4749 354.312 66.7142C353.348 67.5403 351.868 68.1944 349.871 68.6763C347.874 69.2271 345.74 69.5025 343.468 69.5025C337.685 69.5025 334.277 68.0567 333.244 65.1651C332.831 63.9258 332.315 62.3767 331.695 60.5178C331.075 58.59 330.421 56.4902 329.733 54.2182C329.044 51.9462 328.39 49.6053 327.771 47.1956C327.151 44.7171 326.635 42.3418 326.222 40.0698C325.74 42.4795 325.154 44.9925 324.466 47.6087C323.777 50.1561 323.054 52.6691 322.297 55.1476C321.609 57.5573 320.955 59.7949 320.335 61.8603C319.715 63.8569 319.233 65.4749 318.889 66.7142ZM391.388 57.1098C392.559 57.1098 393.832 57.0065 395.209 56.8C396.655 56.5246 397.722 56.1803 398.411 55.7672V47.5054L390.975 48.1251C389.047 48.2628 387.464 48.6759 386.225 49.3643C384.985 50.0528 384.366 51.0856 384.366 52.4625C384.366 53.8395 384.882 54.9755 385.915 55.8705C387.016 56.6967 388.841 57.1098 391.388 57.1098ZM390.562 16.5236C394.28 16.5236 397.653 16.9023 400.683 17.6596C403.781 18.417 406.397 19.5874 408.531 21.1709C410.735 22.6856 412.421 24.6477 413.592 27.0574C414.762 29.3983 415.347 32.1867 415.347 35.4225V58.5556C415.347 60.3457 414.831 61.8259 413.798 62.9963C412.834 64.0979 411.664 65.0618 410.287 65.888C405.812 68.5731 399.512 69.9156 391.388 69.9156C387.739 69.9156 384.434 69.5714 381.474 68.8829C378.582 68.1944 376.069 67.1617 373.935 65.7847C371.87 64.4077 370.252 62.6521 369.081 60.5178C367.98 58.3835 367.429 55.9049 367.429 53.0822C367.429 48.3316 368.84 44.6826 371.663 42.1353C374.486 39.5879 378.858 38.0043 384.779 37.3847L398.307 35.9389V35.216C398.307 33.2194 397.412 31.808 395.622 30.9818C393.901 30.0868 391.388 29.6393 388.083 29.6393C385.467 29.6393 382.92 29.9147 380.441 30.4654C377.963 31.0162 375.725 31.7047 373.729 32.5309C372.834 31.9113 372.076 30.9818 371.457 29.7425C370.837 28.4344 370.527 27.0919 370.527 25.7149C370.527 23.9248 370.94 22.5134 371.766 21.4807C372.661 20.3791 374.004 19.4497 375.794 18.6924C377.791 17.935 380.131 17.3842 382.817 17.04C385.57 16.6957 388.152 16.5236 390.562 16.5236ZM430.655 55.4574C429.898 53.7362 429.072 51.8085 428.177 49.6742C427.35 47.5399 426.455 45.0957 425.492 42.3418C424.597 39.5879 423.633 36.4553 422.6 32.944C421.636 29.3639 420.603 25.2674 419.502 20.6545C420.466 19.6907 421.739 18.8645 423.323 18.176C424.975 17.4187 426.765 17.04 428.693 17.04C431.103 17.04 433.099 17.5564 434.683 18.5891C436.266 19.553 437.437 21.4119 438.194 24.1658L446.353 52.5658H446.766C447.592 50.2249 448.384 47.6776 449.141 44.9236C449.967 42.1697 450.759 39.3469 451.516 36.4553C452.274 33.4948 452.962 30.5687 453.582 27.6771C454.27 24.7166 454.855 21.825 455.337 19.0022C457.816 17.694 460.535 17.04 463.496 17.04C465.906 17.04 467.902 17.5564 469.486 18.5891C471.069 19.6218 471.861 21.4119 471.861 23.9593C471.861 25.8182 471.62 27.9869 471.138 30.4654C470.656 32.8751 470.002 35.457 469.176 38.2109C468.419 40.9648 467.489 43.822 466.388 46.7825C465.355 49.6742 464.253 52.5314 463.083 55.3542C461.912 58.1769 460.708 60.862 459.468 63.4094C458.229 65.888 457.024 68.1255 455.854 70.1222C453.926 73.4957 452.136 76.2497 450.484 78.384C448.831 80.5183 447.248 82.1706 445.733 83.3411C444.218 84.5803 442.704 85.4065 441.189 85.8196C439.674 86.3015 438.091 86.5425 436.438 86.5425C433.547 86.5425 431.206 85.6819 429.416 83.9607C427.626 82.2395 426.559 80.0019 426.214 77.248C428.418 75.5268 430.621 73.599 432.824 71.4647C435.027 69.3992 437.024 67.2649 438.814 65.0618C437.643 64.7175 436.37 63.9258 434.993 62.6865C433.685 61.3784 432.239 58.9687 430.655 55.4574Z" fill="black"/>
</svg>
