<svg width="60" height="60" viewBox="0 0 60 60" fill="none" xmlns="http://www.w3.org/2000/svg">
<path d="M14.9805 14.9315C14.9805 6.68506 21.6655 0 29.912 0C38.1584 0 44.8435 6.68506 44.8435 14.9315V26.7123C44.8435 34.9588 38.1584 41.6438 29.912 41.6438C21.6655 41.6438 14.9805 34.9588 14.9805 26.7123V14.9315Z" fill="#9EA3A7"/>
<path d="M0 7.53425C0 3.3732 3.3732 0 7.53425 0C11.6953 0 15.0685 3.3732 15.0685 7.53425V43.1507C15.0685 47.3117 11.6953 50.6849 7.53425 50.6849C3.3732 50.6849 0 47.3117 0 43.1507V7.53425Z" fill="#9EA3A7"/>
<path d="M0 30.0685C0 21.7842 6.78422 15.0685 15.0685 15.0685C23.3528 15.0685 30.137 21.7842 30.137 30.0685V45C30.137 53.2843 23.3528 60 15.0685 60C6.78422 60 0 53.2843 0 45V30.0685Z" fill="#9EA3A7"/>
<path d="M44.9315 7.53425C44.9315 3.3732 48.3047 0 52.4658 0C56.6268 0 60 3.3732 60 7.53425V43.1507C60 47.3117 56.6268 50.6849 52.4658 50.6849C48.3047 50.6849 44.9315 47.3117 44.9315 43.1507V7.53425Z" fill="#9EA3A7"/>
<path d="M30.137 30C30.137 21.7536 36.822 15.0685 45.0685 15.0685C53.3149 15.0685 60 21.7536 60 30V45.0685C60 53.3149 53.3149 60 45.0685 60C36.822 60 30.137 53.3149 30.137 45.0685V30Z" fill="#9EA3A7"/>
<rect x="16.0938" y="10.959" width="13.6986" height="21.0959" rx="6.84931" fill="white"/>
<rect x="29.792" y="10.959" width="13.6986" height="21.0959" rx="6.84931" fill="white"/>
<rect x="19.0205" y="13.8994" width="7.67123" height="12.0548" rx="3.83562" fill="#4351EC"/>
<rect x="32.7188" y="13.8994" width="7.67123" height="12.0548" rx="3.83562" fill="#4351EC"/>
</svg>
