<svg width="185" height="144" viewBox="0 0 185 144" fill="none" xmlns="http://www.w3.org/2000/svg">
<path d="M119.096 75.1243C120.799 63.0011 112.352 51.7924 100.229 50.0891C88.1056 48.3857 76.8969 56.8327 75.1935 68.9559L72.7601 86.2751C71.0568 98.3983 79.5038 109.607 91.627 111.31C103.75 113.014 114.959 104.567 116.662 92.4435L119.096 75.1243Z" fill="#FE4401"/>
<path d="M142.647 67.3438C143.506 61.2266 139.244 55.5708 133.127 54.7113C127.009 53.8518 121.354 58.1141 120.494 64.2313L113.137 116.592C112.278 122.709 116.54 128.365 122.657 129.224C128.775 130.084 134.43 125.821 135.29 119.704L142.647 67.3438Z" fill="#FE4401"/>
<path d="M137.992 100.472C139.703 88.2929 131.117 77.0187 118.938 75.3075C106.759 73.5963 95.3983 82.0679 93.6872 94.2468L90.603 116.198C88.8918 128.377 97.4782 139.651 109.657 141.362C121.836 143.073 133.197 134.602 134.908 122.423L137.992 100.472Z" fill="#FE4401"/>
<path d="M76.5921 58.0629C77.4516 51.9457 73.1893 46.2899 67.0721 45.4304C60.9549 44.5709 55.2991 48.8332 54.4397 54.9504L47.0828 107.311C46.2233 113.428 50.4856 119.084 56.6028 119.943C62.72 120.803 68.3758 116.54 69.2353 110.423L76.5921 58.0629Z" fill="#FE4401"/>
<path d="M93.7013 94.1461C95.4047 82.0228 86.9577 70.8142 74.8345 69.1108C62.7112 67.4075 51.5026 75.8544 49.7992 87.9777L46.6867 110.13C44.9833 122.253 53.4303 133.462 65.5536 135.165C77.6768 136.869 88.8855 128.422 90.5888 116.299L93.7013 94.1461Z" fill="#FE4401"/>
<rect width="20.3364" height="31.318" rx="10.1682" transform="matrix(-0.990273 -0.139137 -0.139137 0.990273 132.676 71.0771)" fill="white"/>
<rect width="20.3364" height="31.318" rx="10.1682" transform="matrix(-0.990273 -0.139137 -0.139137 0.990273 112.536 68.2471)" fill="white"/>
<rect width="11.3884" height="17.896" rx="5.69419" transform="matrix(-0.990273 -0.139137 -0.139137 0.990273 130.485 72.4463)" fill="#4351EC"/>
<rect width="11.3884" height="17.896" rx="5.69419" transform="matrix(-0.990273 -0.139137 -0.139137 0.990273 110.345 69.6162)" fill="#4351EC"/>
<rect width="22.8065" height="16.2904" rx="8.14518" transform="matrix(-0.999848 -0.017416 -0.017416 0.999848 131.389 85.8784)" fill="#FE4401"/>
<rect width="22.8065" height="16.2904" rx="8.14518" transform="matrix(-0.965935 -0.258784 -0.258784 0.965935 110.936 85.8242)" fill="#FE4401"/>
<path d="M127.865 75.748L127.587 77.7286" stroke="white" stroke-width="2" stroke-linecap="round"/>
<path d="M108.058 72.9658L107.78 74.9464" stroke="white" stroke-width="2" stroke-linecap="round"/>
<rect width="4" height="9" transform="matrix(-0.714725 -0.699405 -0.699405 0.714725 165.576 71.7979)" fill="#FE4401"/>
<rect width="4" height="9" transform="matrix(-0.340761 -0.94015 -0.94015 0.340761 60.79 31.498)" fill="#87986C"/>
<rect width="4" height="9" transform="matrix(0.772788 -0.634665 -0.634665 -0.772788 66.6989 20.231)" fill="#87986C"/>
<rect width="4" height="9" transform="matrix(-0.973825 0.2273 0.2273 0.973825 52.7443 36.7373)" fill="#ADC4FA"/>
<rect width="4" height="9" transform="matrix(-0.248736 0.968571 0.968571 0.248736 23.0729 40.7373)" fill="#ADC4FA"/>
<rect width="4" height="9" transform="matrix(0.469337 0.883019 0.883019 -0.469337 21.1658 55.0273)" fill="#87986C"/>
<rect width="4" height="9" transform="matrix(-0.742803 0.66951 0.66951 0.742803 38.5506 60)" fill="#87986C"/>
<rect width="4" height="9" transform="matrix(-0.742803 0.66951 0.66951 0.742803 26.5506 73)" fill="#ADC4FA"/>
<rect width="4" height="9" transform="matrix(-0.742803 0.66951 0.66951 0.742803 168.551 76)" fill="#87986C"/>
<rect width="4" height="9" transform="matrix(-0.742803 0.66951 0.66951 0.742803 156.551 84)" fill="#ADC4FA"/>
<rect width="4" height="9" transform="matrix(-0.965616 0.259971 0.259971 0.965616 154.236 50)" fill="#87986C"/>
<rect width="4" height="9" transform="matrix(-0.570513 -0.821289 -0.821289 0.570513 37.5759 3.28516)" fill="#ADC4FA"/>
<rect width="4" height="9" transform="matrix(-0.742803 0.66951 0.66951 0.742803 2.55055 57)" fill="#87986C"/>
<rect width="4" height="9" transform="matrix(-0.325211 0.945642 0.945642 0.325211 26.0652 11)" fill="#FE4401"/>
<rect width="4" height="9" transform="matrix(-0.272863 0.962053 0.962053 0.272863 89.918 27)" fill="#ADC4FA"/>
<rect width="4" height="9" transform="matrix(0.342703 0.939444 0.939444 -0.342703 51.9642 17.8218)" fill="#ADC4FA"/>
<rect width="4" height="9" transform="matrix(-0.742803 0.66951 0.66951 0.742803 129.551 29)" fill="#ADC4FA"/>
<rect width="4" height="9" transform="matrix(-0.232381 -0.972625 -0.972625 0.232381 120.92 43.5811)" fill="#ADC4FA"/>
<rect width="4" height="9" transform="matrix(-0.72104 -0.692894 -0.692894 0.72104 127.79 21.5088)" fill="#87986C"/>
<rect width="4" height="9" transform="matrix(-0.554757 -0.832012 -0.832012 0.554757 168.931 32.8496)" fill="#87986C"/>
<rect width="4" height="9" transform="matrix(-0.742803 0.66951 0.66951 0.742803 159.551 13)" fill="#FE4401"/>
<rect width="4" height="9" transform="matrix(-0.378528 0.92559 0.92559 0.378528 176.67 62.127)" fill="#ADC4FA"/>
</svg>
