<svg width="207" height="158" viewBox="0 0 207 158" fill="none" xmlns="http://www.w3.org/2000/svg">
<path d="M165.04 85.0717C170.827 73.7582 166.347 59.8958 155.033 54.1092C143.72 48.3225 129.857 52.8028 124.071 64.1163L115.804 80.2786C110.017 91.5921 114.498 105.454 125.811 111.241C137.124 117.028 150.987 112.547 156.773 101.234L165.04 85.0717Z" fill="#4351EC"/>
<path d="M190.783 85.4352C193.703 79.7266 191.442 72.7318 185.734 69.812C180.025 66.8921 173.03 69.1528 170.11 74.8614L145.118 123.724C142.198 129.433 144.459 136.428 150.167 139.348C155.876 142.267 162.871 140.007 165.79 134.298L190.783 85.4352Z" fill="#4351EC"/>
<path d="M174.97 116.35C180.784 104.985 176.189 91.011 164.823 85.1978C153.458 79.3846 139.438 83.8374 133.625 95.2028L123.147 115.688C117.334 127.053 121.929 141.027 133.294 146.84C144.66 152.653 158.68 148.201 164.493 136.835L174.97 116.35Z" fill="#4351EC"/>
<path d="M129.141 53.9061C132.061 48.1975 129.8 41.2027 124.091 38.2828C118.383 35.3629 111.388 37.6237 108.468 43.3323L83.4753 92.1951C80.5554 97.9038 82.8161 104.899 88.5248 107.818C94.2334 110.738 101.228 108.478 104.148 102.769L129.141 53.9061Z" fill="#4351EC"/>
<path d="M133.673 95.1088C139.46 83.7954 134.979 69.933 123.666 64.1463C112.352 58.3597 98.49 62.84 92.7033 74.1535L82.1295 94.8262C76.3429 106.14 80.8232 120.002 92.1367 125.789C103.45 131.575 117.312 127.095 123.099 115.782L133.673 95.1088Z" fill="#4351EC"/>
<rect width="21.1091" height="32.508" rx="10.5545" transform="matrix(-0.8903 -0.455375 -0.455375 0.8903 165.887 78.6294)" fill="white"/>
<rect width="21.1091" height="32.508" rx="10.5545" transform="matrix(-0.8903 -0.455375 -0.455375 0.8903 147.093 69.0166)" fill="white"/>
<rect width="11.8211" height="18.576" rx="5.91054" transform="matrix(-0.8903 -0.455375 -0.455375 0.8903 159.412 80.4072)" fill="black"/>
<rect width="11.8211" height="18.576" rx="5.91054" transform="matrix(-0.8903 -0.455375 -0.455375 0.8903 140.62 70.7944)" fill="black"/>
<rect x="135.588" y="72.0198" width="2.25458" height="4.50915" rx="1.12729" transform="rotate(27.0891 135.588 72.0198)" fill="white"/>
<rect x="154.657" y="81.7734" width="2.25458" height="4.50915" rx="1.12729" transform="rotate(27.0891 154.657 81.7734)" fill="white"/>
<rect width="23.673" height="16.9093" rx="8.45466" transform="matrix(-0.93916 -0.343481 -0.343481 0.93916 160.62 93.2319)" fill="#4351EC"/>
<rect width="23.673" height="16.9093" rx="8.45466" transform="matrix(-0.828167 -0.560481 -0.560481 0.828167 140.575 86.2349)" fill="#4351EC"/>
<rect x="28.9109" y="42.1123" width="73.078" height="96.751" rx="3.67541" fill="white" stroke="#CACDD2" stroke-width="2.45027"/>
<g clip-path="url(#clip0_9080_24222)">
<rect x="35.5763" y="48.7783" width="39.2044" height="39.2044" rx="2.45027" fill="#CACDD2"/>
<path d="M63.6148 70.7421C63.6148 66.055 59.8151 62.2554 55.128 62.2554C50.4409 62.2554 46.6412 66.055 46.6412 70.7421V77.4381C46.6412 82.1253 50.4409 85.9249 55.128 85.9249C59.8151 85.9249 63.6148 82.1253 63.6148 77.4381V70.7421Z" fill="#4351EC"/>
<path d="M72.1294 66.5377C72.1294 64.1726 70.2121 62.2554 67.8471 62.2554C65.482 62.2554 63.5648 64.1726 63.5648 66.5377V86.7814C63.5648 89.1464 65.482 91.0637 67.8471 91.0637C70.2121 91.0637 72.1294 89.1464 72.1294 86.7814V66.5377Z" fill="#4351EC"/>
<path d="M72.1294 79.3457C72.1294 74.6371 68.2734 70.82 63.5648 70.82C58.8561 70.82 55.0001 74.6371 55.0001 79.3457V87.8325C55.0001 92.5411 58.8561 96.3582 63.5648 96.3582C68.2734 96.3582 72.1294 92.5411 72.1294 87.8325V79.3457Z" fill="#4351EC"/>
<path d="M46.5912 66.5377C46.5912 64.1726 44.6739 62.2554 42.3089 62.2554C39.9438 62.2554 38.0266 64.1726 38.0266 66.5377V86.7814C38.0266 89.1464 39.9438 91.0637 42.3089 91.0637C44.6739 91.0637 46.5912 89.1464 46.5912 86.7814V66.5377Z" fill="#4351EC"/>
<path d="M55.0001 79.3068C55.0001 74.6197 51.2005 70.82 46.5133 70.82C41.8262 70.82 38.0266 74.6197 38.0266 79.3068V87.8714C38.0266 92.5585 41.8262 96.3582 46.5133 96.3582C51.2005 96.3582 55.0001 92.5585 55.0001 87.8714V79.3068Z" fill="#4351EC"/>
<rect width="7.78603" height="11.9905" rx="3.89302" transform="matrix(-1 0 0 1 62.8104 68.4851)" fill="white"/>
<rect width="7.78603" height="11.9905" rx="3.89302" transform="matrix(-1 0 0 1 55.0242 68.4851)" fill="white"/>
<rect width="4.36018" height="6.85171" rx="2.18009" transform="matrix(-1 0 0 1 60.9823 70.1565)" fill="black"/>
<rect width="4.36018" height="6.85171" rx="2.18009" transform="matrix(-1 0 0 1 53.1971 70.1565)" fill="black"/>
<rect x="51.7507" y="71.4031" width="0.831594" height="1.66319" rx="0.415797" fill="white"/>
<rect x="59.6506" y="71.4031" width="0.831594" height="1.66319" rx="0.415797" fill="white"/>
<rect width="8.73174" height="6.23696" rx="3.11848" transform="matrix(-0.992546 0.121869 0.121869 0.992546 63.5325 74.1646)" fill="#4351EC"/>
<rect width="8.73174" height="6.23696" rx="3.11848" transform="matrix(-0.992546 -0.121869 -0.121869 0.992546 55.7737 75.2341)" fill="#4351EC"/>
</g>
<path d="M76.1586 51.033H96.4497" stroke="#CACDD2" stroke-width="2.45027" stroke-linecap="round"/>
<path d="M76.1586 55.542H96.4497" stroke="#CACDD2" stroke-width="2.45027" stroke-linecap="round"/>
<path d="M76.1586 60.0496H96.4497" stroke="#CACDD2" stroke-width="2.45027" stroke-linecap="round"/>
<path d="M76.1586 64.5586H96.4497" stroke="#CACDD2" stroke-width="2.45027" stroke-linecap="round"/>
<path d="M76.1586 69.0679H96.4497" stroke="#CACDD2" stroke-width="2.45027" stroke-linecap="round"/>
<path d="M76.1586 73.5771H96.4497" stroke="#CACDD2" stroke-width="2.45027" stroke-linecap="round"/>
<path d="M76.1586 78.0859H96.4497" stroke="#CACDD2" stroke-width="2.45027" stroke-linecap="round"/>
<path d="M76.1586 82.5952H96.4497" stroke="#CACDD2" stroke-width="2.45027" stroke-linecap="round"/>
<rect x="35.5765" y="89.3591" width="62.0008" height="5.63644" rx="2.81822" fill="#CACDD2"/>
<rect x="35.5765" y="99.5044" width="62.0008" height="5.63644" rx="2.81822" fill="#CACDD2"/>
<rect x="35.5765" y="109.65" width="62.0008" height="5.63644" rx="2.81822" fill="#CACDD2"/>
<rect x="35.5765" y="119.796" width="62.0008" height="5.63644" rx="2.81822" fill="#CACDD2"/>
<circle cx="100.395" cy="87.668" r="8.45466" fill="#4351EC"/>
<path d="M36.314 88.4752C36.314 93.1445 32.5287 96.9298 27.8593 96.9298C23.1899 96.9298 21.2216 93.1445 21.2216 88.4752C21.2216 83.8058 23.1899 80.0205 27.8593 80.0205C32.5287 80.0205 36.314 83.8058 36.314 88.4752Z" fill="#4351EC"/>
<rect x="11.5696" y="40.3357" width="3.68053" height="8.28119" transform="rotate(-44.3793 11.5696 40.3357)" fill="#FE4401"/>
<rect x="137.823" y="19.1028" width="3.68053" height="8.28119" transform="rotate(-70.0768 137.823 19.1028)" fill="#87986C"/>
<rect x="132.385" y="8.7356" width="3.68053" height="8.28119" transform="rotate(-140.605 132.385 8.7356)" fill="#87986C"/>
<rect x="145.226" y="23.9236" width="3.68053" height="8.28119" transform="rotate(13.1382 145.226 23.9236)" fill="#ADC4FA"/>
<rect x="172.527" y="27.604" width="3.68053" height="8.28119" transform="rotate(75.5973 172.527 27.604)" fill="#ADC4FA"/>
<rect x="192.785" y="37.9675" width="3.68053" height="8.28119" transform="rotate(117.991 192.785 37.9675)" fill="#87986C"/>
<rect x="181.819" y="44.9639" width="3.68053" height="8.28119" transform="rotate(42.0293 181.819 44.9639)" fill="#87986C"/>
<rect x="203.733" y="34.0813" width="3.68053" height="8.28119" transform="rotate(42.0293 203.733 34.0813)" fill="#ADC4FA"/>
<rect x="5.54437" y="50.866" width="3.68053" height="8.28119" transform="rotate(42.0293 5.54437 50.866)" fill="#87986C"/>
<rect x="16.5692" y="58.186" width="3.68053" height="8.28119" transform="rotate(42.0293 16.5692 58.186)" fill="#ADC4FA"/>
<rect x="23.8446" y="21.1987" width="3.68053" height="8.28119" transform="rotate(15.0683 23.8446 21.1987)" fill="#87986C"/>
<rect x="178.798" y="5.13843" width="3.68053" height="8.28119" transform="rotate(-55.214 178.798 5.13843)" fill="#ADC4FA"/>
<rect x="205.934" y="59.7371" width="3.68053" height="8.28119" transform="rotate(116.326 205.934 59.7371)" fill="#87986C"/>
<rect x="189.389" y="12.2375" width="3.68053" height="8.28119" transform="rotate(71.0217 189.389 12.2375)" fill="#FE4401"/>
<rect x="111.021" y="14.9639" width="3.68053" height="8.28119" transform="rotate(74.1653 111.021 14.9639)" fill="#ADC4FA"/>
<rect x="145.944" y="6.51807" width="3.68053" height="8.28119" transform="rotate(110.042 145.944 6.51807)" fill="#ADC4FA"/>
<rect x="74.5536" y="16.8042" width="3.68053" height="8.28119" transform="rotate(42.0293 74.5536 16.8042)" fill="#ADC4FA"/>
<rect x="82.4951" y="30.2207" width="3.68053" height="8.28119" transform="rotate(-76.5627 82.4951 30.2207)" fill="#ADC4FA"/>
<rect x="76.1737" y="9.91089" width="3.68053" height="8.28119" transform="rotate(-43.8596 76.1737 9.91089)" fill="#87986C"/>
<rect x="38.3181" y="20.3464" width="3.68053" height="8.28119" transform="rotate(-56.306 38.3181 20.3464)" fill="#87986C"/>
<rect x="46.9497" y="2.08179" width="3.68053" height="8.28119" transform="rotate(42.0293 46.9497 2.08179)" fill="#FE4401"/>
<rect x="9.11237" y="25.7996" width="3.68053" height="8.28119" transform="rotate(67.7575 9.11237 25.7996)" fill="#ADC4FA"/>
<defs>
<clipPath id="clip0_9080_24222">
<rect width="36.0732" height="36.0732" fill="white" transform="translate(35.5765 48.7781)"/>
</clipPath>
</defs>
</svg>
