<svg width="18" height="17" viewBox="0 0 18 17" fill="none" xmlns="http://www.w3.org/2000/svg">
<path d="M4.88757 4.08834C4.88757 1.83041 6.71799 0 8.97592 0C11.2338 0 13.0643 1.83041 13.0643 4.08834V7.314C13.0643 9.57193 11.2338 11.4023 8.97592 11.4023C6.71799 11.4023 4.88757 9.57193 4.88757 7.314V4.08834Z" fill="#4351EC"/>
<path d="M0.785828 2.06292C0.785828 0.923602 1.70943 0 2.84875 0C3.98807 0 4.91168 0.923603 4.91168 2.06292V11.8149C4.91168 12.9543 3.98807 13.8779 2.84875 13.8779C1.70943 13.8779 0.785828 12.9543 0.785828 11.8149V2.06292Z" fill="#4351EC"/>
<path d="M0.785828 8.23294C0.785828 5.96466 2.64339 4.12585 4.91168 4.12585C7.17996 4.12585 9.03753 5.96466 9.03753 8.23294V12.3213C9.03753 14.5896 7.17996 16.4284 4.91168 16.4284C2.64339 16.4284 0.785828 14.5896 0.785828 12.3213V8.23294Z" fill="#4351EC"/>
<path d="M13.0884 2.06292C13.0884 0.923602 14.012 0 15.1513 0C16.2906 0 17.2142 0.923603 17.2142 2.06292V11.8149C17.2142 12.9543 16.2906 13.8779 15.1513 13.8779C14.012 13.8779 13.0884 12.9543 13.0884 11.8149V2.06292Z" fill="#4351EC"/>
<path d="M9.03753 8.21419C9.03753 5.95626 10.8679 4.12585 13.1259 4.12585C15.3838 4.12585 17.2142 5.95626 17.2142 8.21419V12.34C17.2142 14.598 15.3838 16.4284 13.1259 16.4284C10.8679 16.4284 9.03753 14.598 9.03753 12.34V8.21419Z" fill="#4351EC"/>
<rect x="2.51068" y="3.00049" width="3.75077" height="5.77619" rx="1.87539" fill="white"/>
<rect x="6.26147" y="3.00049" width="3.75077" height="5.77619" rx="1.87539" fill="white"/>
<rect x="2.51068" y="4.72534" width="2.10043" height="3.30068" rx="1.05022" fill="#27282C"/>
<rect x="6.26147" y="4.72534" width="2.10043" height="3.30068" rx="1.05022" fill="#27282C"/>
</svg>
