<svg width="198" height="97" viewBox="0 0 198 97" fill="none" xmlns="http://www.w3.org/2000/svg">
<path d="M24.1183 24.0394C24.1183 10.7628 34.8811 0 48.1577 0C61.4343 0 72.1972 10.7628 72.1972 24.0394V43.0063C72.1972 56.283 61.4343 67.0458 48.1577 67.0458C34.8811 67.0458 24.1183 56.283 24.1183 43.0063V24.0394Z" fill="#FE4401"/>
<path d="M0 12.13C0 5.43078 5.43078 0 12.13 0C18.8292 0 24.26 5.43078 24.26 12.13V69.4718C24.26 76.171 18.8292 81.6018 12.13 81.6018C5.43078 81.6018 0 76.171 0 69.4718V12.13Z" fill="#FE4401"/>
<path d="M0 48.4097C0 35.0722 10.9225 24.26 24.26 24.26C37.5975 24.26 48.52 35.0722 48.52 48.4097V72.4492C48.52 85.7867 37.5975 96.5989 24.26 96.5989C10.9225 96.5989 0 85.7867 0 72.4492V48.4097Z" fill="#FE4401"/>
<path d="M72.3389 12.13C72.3389 5.43078 77.7697 0 84.4689 0C91.1681 0 96.5989 5.43078 96.5989 12.13V69.4718C96.5989 76.171 91.1681 81.6018 84.4689 81.6018C77.7697 81.6018 72.3389 76.171 72.3389 69.4718V12.13Z" fill="#FE4401"/>
<path d="M48.52 48.2994C48.52 35.0228 59.2828 24.26 72.5594 24.26C85.8361 24.26 96.5989 35.0228 96.5989 48.2994V72.5594C96.5989 85.8361 85.8361 96.5989 72.5594 96.5989C59.2828 96.5989 48.52 85.8361 48.52 72.5594V48.2994Z" fill="#FE4401"/>
<path d="M101.01 35.177C101.01 21.8395 111.933 11.0273 125.27 11.0273C138.608 11.0273 149.53 21.8395 149.53 35.177V72.4492C149.53 85.7867 138.608 96.5989 125.27 96.5989C111.933 96.5989 101.01 85.7867 101.01 72.4492V35.177Z" fill="#FE4401"/>
<path d="M149.53 35.0667C149.53 21.7901 160.293 11.0273 173.57 11.0273C186.846 11.0273 197.609 21.7901 197.609 35.0667V72.5594C197.609 85.8361 186.846 96.5989 173.57 96.5989C160.293 96.5989 149.53 85.8361 149.53 72.5594V35.0667Z" fill="#FE4401"/>
<path d="M101.01 35.7284C101.01 15.9961 117.006 0 136.738 0H161.881C181.613 0 197.609 15.9961 197.609 35.7284C197.609 55.4606 181.613 71.4567 161.881 71.4567H136.738C117.006 71.4567 101.01 55.4606 101.01 35.7284Z" fill="#FE4401"/>
<rect x="10.1445" y="17.6436" width="22.0545" height="33.964" rx="11.0273" fill="white"/>
<rect x="32.199" y="17.6436" width="22.0545" height="33.964" rx="11.0273" fill="white"/>
<rect x="115.565" y="17.6436" width="22.0545" height="33.964" rx="11.0273" fill="white"/>
<rect x="137.62" y="17.6436" width="22.0545" height="33.964" rx="11.0273" fill="white"/>
<rect x="10.1445" y="27.7887" width="12.3505" height="19.408" rx="6.17527" fill="#4351EC"/>
<rect x="32.199" y="27.7886" width="12.3505" height="19.408" rx="6.17527" fill="#4351EC"/>
<rect x="122.623" y="22.4957" width="12.3505" height="19.408" rx="6.17527" fill="#4351EC"/>
<rect x="144.677" y="22.4957" width="12.3505" height="19.408" rx="6.17527" fill="#4351EC"/>
</svg>
